<?xml version="1.0" encoding="iso-8859-1"?>
<!-- Uploaded to: SVG Repo, www.svgrepo.com, Generator: SVG Repo Mixer Tools -->
<svg fill="#000000" height="800px" width="800px" version="1.1" id="Layer_1" xmlns="http://www.w3.org/2000/svg" xmlns:xlink="http://www.w3.org/1999/xlink" 
	 viewBox="0 0 491.52 491.52" xml:space="preserve">
<g>
	<g>
		<path d="M355.345,138.25c-29.08-29.72-67.995-46.09-109.585-46.09c-41.585,0-80.5,16.37-109.555,46.065
			C107.8,167.05,92.16,205.24,92.16,245.76s15.64,78.71,44.02,107.51c29.08,29.72,67.995,46.09,109.58,46.09
			c41.59,0,80.505-16.37,109.56-46.065c28.4-28.825,44.04-67.015,44.04-107.535S383.72,167.05,355.345,138.25z M192.681,123.691
			c-7.003,9.495-13.146,20.801-18.182,33.662c-5.569-3.559-10.899-7.529-15.948-11.944
			C168.881,136.372,180.356,129.066,192.681,123.691z M144.188,159.986c7.419,6.596,15.366,12.375,23.756,17.342
			c-4.856,17.654-7.85,37.273-8.597,58.191h-46.213C115.259,207.564,126.036,181.354,144.188,159.986z M113.134,256h46.214
			c0.747,20.917,3.741,40.535,8.596,58.189c-8.391,4.969-16.338,10.749-23.757,17.345C126.04,310.18,115.258,283.965,113.134,256z
			 M158.552,346.11c5.048-4.416,10.377-8.384,15.946-11.944c5.036,12.861,11.179,24.166,18.181,33.661
			C180.357,362.451,168.886,355.148,158.552,346.11z M235.52,377.042c-17.261-5.669-32.501-25.254-42.711-52.709
			c13.421-5.834,27.807-9.357,42.711-10.483V377.042z M235.52,293.369c-16.993,1.112-33.453,4.831-48.821,11.24
			c-3.781-14.937-6.194-31.352-6.886-48.609h55.708V293.369z M235.52,235.52h-55.708c0.692-17.258,3.105-33.674,6.886-48.611
			c15.369,6.411,31.829,10.129,48.821,11.241V235.52z M235.52,177.671c-14.903-1.128-29.289-4.65-42.71-10.485
			c10.211-27.454,25.45-47.039,42.71-52.707V177.671z M378.386,235.52h-46.209c-0.747-20.918-3.742-40.537-8.598-58.191
			c8.391-4.969,16.338-10.748,23.758-17.344C365.48,181.337,376.262,207.552,378.386,235.52z M332.972,145.409
			c-5.049,4.415-10.379,8.384-15.947,11.944c-5.037-12.861-11.181-24.166-18.184-33.661
			C311.165,129.067,322.638,136.371,332.972,145.409z M256,114.477c17.263,5.669,32.503,25.253,42.714,52.708
			c-13.423,5.836-27.811,9.358-42.714,10.486V114.477z M256,198.151c16.994-1.112,33.454-4.831,48.826-11.242
			c3.781,14.938,6.195,31.353,6.887,48.612H256V198.151z M256,256h55.713c-0.692,17.258-3.105,33.674-6.886,48.611
			c-15.371-6.41-31.832-10.129-48.826-11.241V256z M256,377.042v-63.193c14.904,1.126,29.292,4.649,42.715,10.484
			C288.504,351.789,273.263,371.374,256,377.042z M298.839,367.831c7.004-9.496,13.149-20.802,18.187-33.666
			c5.569,3.56,10.9,7.529,15.949,11.945C322.643,355.149,311.167,362.456,298.839,367.831z M347.338,331.533
			c-7.42-6.596-15.367-12.376-23.758-17.344c4.855-17.654,7.851-37.272,8.597-58.189h46.208
			C376.262,283.959,365.486,310.169,347.338,331.533z"/>
	</g>
</g>
<g>
	<g>
		<path d="M460.281,235.52C455.044,125.131,366.389,36.476,256,31.239V0h-20.48v31.239C125.131,36.476,36.476,125.131,31.239,235.52
			H0V256h31.239c5.237,110.389,93.892,199.044,204.281,204.281v31.239H256v-31.239C366.389,455.044,455.044,366.389,460.281,256
			h31.239v-20.48H460.281z M439.801,256C434.605,355.096,355.096,434.605,256,439.801V419.84h-20.48v19.961
			C136.424,434.605,56.915,355.096,51.719,256H71.68v-20.48H51.719c5.196-99.096,84.705-178.605,183.801-183.801V71.68H256V51.719
			c99.096,5.196,178.605,84.705,183.801,183.801H419.84V256H439.801z"/>
	</g>
</g>
</svg>