<?xml version="1.0" encoding="iso-8859-1"?>
<!-- Uploaded to: SVG Repo, www.svgrepo.com, Generator: SVG Repo Mixer Tools -->
<svg fill="#000000" height="800px" width="800px" version="1.1" id="Capa_1" xmlns="http://www.w3.org/2000/svg" xmlns:xlink="http://www.w3.org/1999/xlink" 
	 viewBox="0 0 60 60" xml:space="preserve">
<g>
	<g>
		<path d="M59,8c0.553,0,1-0.448,1-1V1c0-0.552-0.447-1-1-1H1C0.447,0,0,0.448,0,1v6c0,0.552,0.447,1,1,1h14v26h-3V19
			c0-0.552-0.447-1-1-1H5c-0.553,0-1,0.448-1,1v22c0,0.552,0.447,1,1,1h21v10H1c-0.553,0-1,0.448-1,1v6c0,0.552,0.447,1,1,1h58
			c0.553,0,1-0.448,1-1v-6c0-0.552-0.447-1-1-1H34V42h21c0.553,0,1-0.448,1-1V19c0-0.552-0.447-1-1-1h-6c-0.553,0-1,0.448-1,1v15h-3
			V8H59z M49,36c0.553,0,1-0.448,1-1V20h4v20H33c-0.553,0-1,0.448-1,1v12c0,0.552,0.447,1,1,1h25v4H2v-4h25c0.553,0,1-0.448,1-1V41
			c0-0.552-0.447-1-1-1H6V20h4v15c0,0.552,0.447,1,1,1h5h6h5c0.553,0,1-0.448,1-1V20h4v15c0,0.552,0.447,1,1,1h5h6H49z M33,18h-6
			c-0.553,0-1,0.448-1,1v15h-3V8h14v26h-3V19C34,18.448,33.553,18,33,18z M44,6c-0.553,0-1,0.448-1,1v27h-4V7c0-0.552-0.447-1-1-1
			H22c-0.553,0-1,0.448-1,1v27h-4V7c0-0.552-0.447-1-1-1H2V2h56v4H44z"/>
	</g>
</g>
</svg>